<?xml version="1.0" encoding="UTF-8" ?>
<!DOCTYPE svg PUBLIC "-//W3C//DTD SVG 1.1//EN" "http://www.w3.org/Graphics/SVG/1.1/DTD/svg11.dtd">
<svg width="633pt" height="650pt" viewBox="0 0 633 650" version="1.1" xmlns="http://www.w3.org/2000/svg">
<g id="#4300008a">
<path fill="#430000" opacity="0.54" d=" M 420.44 29.63 C 447.60 25.20 476.58 41.49 486.76 67.09 C 492.94 81.69 493.07 98.67 487.40 113.45 C 482.97 125.16 474.67 135.26 464.41 142.36 C 451.04 151.57 433.93 155.06 418.00 151.99 C 405.20 149.67 393.27 143.08 384.33 133.66 C 371.20 119.67 365.08 99.43 368.31 80.51 C 370.37 69.28 375.36 58.52 383.01 50.01 C 392.62 39.15 406.06 31.70 420.44 29.63 Z" />
<path fill="#430000" opacity="0.54" d=" M 195.55 81.41 C 201.39 73.46 212.27 69.39 221.83 72.17 C 227.10 73.77 232.69 74.64 237.56 77.37 C 298.05 114.59 358.60 151.73 418.98 189.14 C 428.30 194.47 437.29 200.46 445.19 207.76 C 447.66 210.07 449.41 213.01 450.60 216.15 C 457.82 234.29 465.06 252.42 472.55 270.45 C 473.66 273.85 477.03 275.49 480.08 276.79 C 512.83 290.62 545.40 304.86 578.08 318.84 C 581.29 320.21 584.66 321.42 587.41 323.66 C 595.49 330.13 598.98 341.86 595.47 351.65 C 591.30 364.45 575.67 372.22 563.08 367.08 C 526.21 351.14 489.23 335.48 452.31 319.67 C 446.06 317.21 439.23 314.46 435.60 308.43 C 432.04 302.12 428.34 295.85 425.74 289.07 C 420.78 276.21 415.19 263.61 410.38 250.69 C 388.58 283.58 367.62 317.01 346.05 350.05 C 344.69 352.29 342.08 355.83 345.16 357.85 C 371.53 379.50 398.25 400.74 424.77 422.22 C 429.07 425.97 432.47 431.16 432.98 436.96 C 433.79 447.55 433.02 458.84 427.16 468.03 C 404.23 513.54 381.46 559.13 358.76 604.74 C 356.39 610.54 352.62 615.92 347.09 619.08 C 340.58 623.14 332.22 623.64 325.10 620.98 C 314.57 616.85 307.54 605.10 309.16 593.86 C 309.62 590.05 311.52 586.64 313.22 583.26 C 334.33 541.02 355.38 498.74 376.62 456.56 C 377.75 454.04 379.69 450.27 376.83 448.20 C 344.36 422.01 311.81 395.90 279.46 369.55 C 275.93 367.03 273.01 363.52 269.06 361.68 C 267.44 362.95 266.82 365.04 265.82 366.78 C 249.00 398.90 231.98 430.93 214.97 462.95 C 213.03 466.58 211.31 470.46 208.27 473.34 C 199.46 482.00 183.80 483.05 174.56 474.50 C 137.11 440.64 100.40 405.99 63.20 371.86 C 57.90 367.13 54.73 360.03 55.08 352.89 C 55.04 344.70 59.59 336.88 66.33 332.38 C 75.30 326.17 88.55 326.79 96.61 334.26 C 125.59 360.78 154.29 387.62 183.22 414.21 C 185.76 411.51 187.13 408.03 188.85 404.80 C 228.51 329.88 268.11 254.92 307.88 180.05 C 281.60 163.20 254.67 147.39 228.36 130.59 C 226.90 129.71 225.13 128.54 223.39 129.42 C 221.74 130.81 220.77 132.81 219.51 134.53 C 201.62 159.91 183.32 185.02 165.42 210.40 C 162.53 214.75 159.04 218.92 154.27 221.26 C 149.36 223.95 143.54 223.83 138.12 223.35 C 129.58 222.19 122.51 215.66 119.18 207.93 C 115.77 200.45 117.26 191.41 121.79 184.74 C 146.43 150.34 171.08 115.94 195.55 81.41 Z" />
</g>
</svg>
